<svg width="32" height="32" viewBox="0 0 32 32" fill="none" xmlns="http://www.w3.org/2000/svg">
<path d="M18.6667 24L24 28V24H25.3333C26.0406 24 26.7189 23.719 27.219 23.219C27.719 22.7189 28 22.0406 28 21.3333V13.3333C28 12.6261 27.719 11.9478 27.219 11.4477C26.7189 10.9476 26.0406 10.6667 25.3333 10.6667H14.6667C13.9594 10.6667 13.2811 10.9476 12.781 11.4477C12.281 11.9478 12 12.6261 12 13.3333V21.3333C12 22.0406 12.281 22.7189 12.781 23.219C13.2811 23.719 13.9594 24 14.6667 24H18.6667Z" stroke="#595959" stroke-width="1.5" stroke-linecap="round" stroke-linejoin="round"/>
<path d="M12 20L8 22.6667V18.6667H6.66667C5.95942 18.6667 5.28115 18.3857 4.78105 17.8856C4.28095 17.3855 4 16.7072 4 16V8C4 7.29276 4.28095 6.61448 4.78105 6.11438C5.28115 5.61429 5.95942 5.33333 6.66667 5.33333H18.6667C19.3739 5.33333 20.0522 5.61429 20.5523 6.11438C21.0524 6.61448 21.3333 7.29276 21.3333 8V10.6667" stroke="#595959" stroke-width="1.5" stroke-linecap="round" stroke-linejoin="round"/>
<path d="M16.5735 17.2867C16.5811 17.2924 16.5874 17.2997 16.592 17.3081C16.5966 17.3165 16.5993 17.3257 16.6 17.3353C16.6006 17.3448 16.5993 17.3543 16.5959 17.3633C16.5926 17.3722 16.5874 17.3804 16.5806 17.3871C16.5738 17.3939 16.5657 17.3991 16.5568 17.4024C16.5478 17.4058 16.5383 17.4072 16.5287 17.4065C16.5192 17.4058 16.5099 17.4031 16.5016 17.3985C16.4932 17.3939 16.4859 17.3876 16.4801 17.38C16.4705 17.3671 16.4658 17.3513 16.467 17.3353C16.4681 17.3193 16.475 17.3042 16.4863 17.2928C16.4977 17.2815 16.5127 17.2746 16.5287 17.2735C16.5447 17.2723 16.5606 17.277 16.5735 17.2867" stroke="#595959" stroke-width="1.5" stroke-linecap="round" stroke-linejoin="round"/>
<path d="M20.0461 17.2867C20.0538 17.2924 20.0601 17.2997 20.0647 17.3081C20.0692 17.3165 20.0719 17.3257 20.0726 17.3353C20.0733 17.3448 20.0719 17.3543 20.0686 17.3633C20.0652 17.3722 20.06 17.3804 20.0533 17.3871C20.0465 17.3939 20.0384 17.3991 20.0294 17.4024C20.0205 17.4058 20.0109 17.4072 20.0014 17.4065C19.9919 17.4058 19.9826 17.4031 19.9742 17.3985C19.9658 17.3939 19.9585 17.3876 19.9528 17.38C19.9432 17.3671 19.9385 17.3513 19.9396 17.3353C19.9408 17.3193 19.9476 17.3042 19.959 17.2928C19.9703 17.2815 19.9854 17.2746 20.0014 17.2735C20.0174 17.2723 20.0333 17.277 20.0461 17.2867" stroke="#595959" stroke-width="1.5" stroke-linecap="round" stroke-linejoin="round"/>
<path d="M23.5207 17.2867C23.5284 17.2924 23.5347 17.2997 23.5393 17.3081C23.5438 17.3165 23.5466 17.3257 23.5472 17.3353C23.5479 17.3448 23.5465 17.3543 23.5432 17.3633C23.5398 17.3722 23.5346 17.3804 23.5279 17.3871C23.5211 17.3939 23.513 17.3991 23.504 17.4024C23.4951 17.4058 23.4855 17.4072 23.476 17.4065C23.4665 17.4058 23.4572 17.4031 23.4488 17.3985C23.4404 17.3939 23.4331 17.3876 23.4274 17.38C23.4178 17.3671 23.4131 17.3513 23.4142 17.3353C23.4154 17.3193 23.4222 17.3042 23.4336 17.2928C23.4449 17.2815 23.46 17.2746 23.476 17.2735C23.492 17.2723 23.5079 17.277 23.5207 17.2867" stroke="#595959" stroke-width="1.5" stroke-linecap="round" stroke-linejoin="round"/>
</svg>
