<svg width="20" height="20" viewBox="0 0 20 20" fill="none" xmlns="http://www.w3.org/2000/svg">
<path fill-rule="evenodd" clip-rule="evenodd" d="M4 6.5C5.38071 6.5 6.5 5.38071 6.5 4C6.5 2.61929 5.38071 1.5 4 1.5C2.61929 1.5 1.5 2.61929 1.5 4C1.5 5.38071 2.61929 6.5 4 6.5ZM7.9298 4.75C7.57875 6.60065 5.95279 8 4 8C1.79086 8 0 6.20914 0 4C0 1.79086 1.79086 0 4 0C5.95279 0 7.57875 1.39935 7.9298 3.25H12.0702C12.4213 1.39935 14.0472 0 16 0C18.2091 0 20 1.79086 20 4C20 6.20914 18.2091 8 16 8C14.0472 8 12.4213 6.60065 12.0702 4.75H10.75L10.75 15C10.75 15.2761 10.9739 15.5 11.25 15.5H12.0309C12.277 13.5268 13.9602 12 16 12C18.2091 12 20 13.7909 20 16C20 18.2091 18.2091 20 16 20C14.1362 20 12.5701 18.7252 12.126 17H10.75V17C9.92157 17 9.25 16.3284 9.25 15.5V15.5V4.75H7.9298ZM18.5 4C18.5 5.38071 17.3807 6.5 16 6.5C14.6193 6.5 13.5 5.38071 13.5 4C13.5 2.61929 14.6193 1.5 16 1.5C17.3807 1.5 18.5 2.61929 18.5 4ZM18.5 16C18.5 17.3807 17.3807 18.5 16 18.5C14.6193 18.5 13.5 17.3807 13.5 16C13.5 14.6193 14.6193 13.5 16 13.5C17.3807 13.5 18.5 14.6193 18.5 16Z" fill="#595959"/>
</svg>
